<?xml version="1.0" encoding="UTF-8" standalone="no"?>
<svg
   xmlns:dc="http://purl.org/dc/elements/1.1/"
   xmlns:cc="http://creativecommons.org/ns#"
   xmlns:rdf="http://www.w3.org/1999/02/22-rdf-syntax-ns#"
   xmlns:svg="http://www.w3.org/2000/svg"
   xmlns="http://www.w3.org/2000/svg"
   xmlns:sodipodi="http://sodipodi.sourceforge.net/DTD/sodipodi-0.dtd"
   xmlns:inkscape="http://www.inkscape.org/namespaces/inkscape"
   enable-background="new 0 0 32 32"
   version="1.1"
   viewBox="0 0 32 32"
   xml:space="preserve"
   id="svg26"
   sodipodi:docname="Energy.svg"
   inkscape:export-filename="C:\Users\Matty\Documents\Projects\DawnOfCivilisation\Textures\UI\Energy.png"
   inkscape:export-xdpi="1536"
   inkscape:export-ydpi="1536"
   inkscape:version="0.92.4 (5da689c313, 2019-01-14)"><metadata
     id="metadata32"><rdf:RDF><cc:Work
         rdf:about=""><dc:format>image/svg+xml</dc:format><dc:type
           rdf:resource="http://purl.org/dc/dcmitype/StillImage" /></cc:Work></rdf:RDF></metadata><defs
     id="defs30" /><sodipodi:namedview
     pagecolor="#ffffff"
     bordercolor="#666666"
     borderopacity="1"
     objecttolerance="10"
     gridtolerance="10"
     guidetolerance="10"
     inkscape:pageopacity="0"
     inkscape:pageshadow="2"
     inkscape:window-width="1920"
     inkscape:window-height="1017"
     id="namedview28"
     showgrid="false"
     inkscape:zoom="14.75"
     inkscape:cx="10.755908"
     inkscape:cy="17.325553"
     inkscape:window-x="1272"
     inkscape:window-y="-8"
     inkscape:window-maximized="1"
     inkscape:current-layer="svg26" /><g
     id="Energy20" /><g
     id="Energy19" /><g
     id="Energy18" /><g
     id="Energy17" /><g
     id="Energy16" /><g
     id="Energy15" /><g
     id="Energy14" /><g
     id="Energy13" /><g
     id="Energy12" /><g
     id="Energy11" /><g
     id="Energy10" /><g
     id="Energy09" /><g
     id="Energy08" /><g
     id="Energy07" /><g
     id="Energy06" /><g
     id="Energy05" /><g
     id="Energy04" /><g
     id="Energy03" /><g
     id="Energy02" /><g
     id="Energy01"><g
       id="g23"><path
         d="M26.87,12.49l-10,18C16.69,30.81,16.36,31,16,31c-0.08,0-0.17-0.01-0.25-0.03C15.31,30.85,15,30.46,15,30    V19H6c-0.34,0-0.65-0.17-0.84-0.45c-0.18-0.28-0.21-0.64-0.08-0.95l7-16C12.24,1.24,12.6,1,13,1h6c0.33,0,0.64,0.16,0.83,0.44    c0.18,0.27,0.22,0.62,0.1,0.93L16.48,11H26c0.35,0,0.68,0.19,0.86,0.49C27.04,11.8,27.05,12.18,26.87,12.49z"
         fill="#FFB841"
         id="path21" /></g></g></svg>