<?xml version="1.0" encoding="UTF-8" standalone="no"?>
<!-- Created with Inkscape (http://www.inkscape.org/) -->

<svg
   xmlns:osb="http://www.openswatchbook.org/uri/2009/osb"
   xmlns:dc="http://purl.org/dc/elements/1.1/"
   xmlns:cc="http://creativecommons.org/ns#"
   xmlns:rdf="http://www.w3.org/1999/02/22-rdf-syntax-ns#"
   xmlns:svg="http://www.w3.org/2000/svg"
   xmlns="http://www.w3.org/2000/svg"
   xmlns:sodipodi="http://sodipodi.sourceforge.net/DTD/sodipodi-0.dtd"
   xmlns:inkscape="http://www.inkscape.org/namespaces/inkscape"
   width="128px"
   height="128px"
   viewBox="0 0 128 128"
   version="1.1"
   id="SVGRoot"
   sodipodi:docname="MenuButton.svg"
   inkscape:export-filename="C:\Users\Matty\Documents\Projects\DawnOfCivilisation\Textures\UI\UI_Building.png"
   inkscape:export-xdpi="384"
   inkscape:export-ydpi="384"
   inkscape:version="0.92.4 (5da689c313, 2019-01-14)">
  <defs
     id="defs3785">
    <linearGradient
       osb:paint="gradient"
       id="linearGradient6134">
      <stop
         id="stop6192"
         offset="0"
         style="stop-color:#000000;stop-opacity:1;" />
      <stop
         id="stop6194"
         offset="1"
         style="stop-color:#000000;stop-opacity:0;" />
    </linearGradient>
    <filter
       style="color-interpolation-filters:sRGB;"
       inkscape:label="Drop Shadow"
       id="filter6771">
      <feFlood
         flood-opacity="0.498039"
         flood-color="rgb(0,0,0)"
         result="flood"
         id="feFlood6761" />
      <feComposite
         in="flood"
         in2="SourceGraphic"
         operator="in"
         result="composite1"
         id="feComposite6763" />
      <feGaussianBlur
         in="composite1"
         stdDeviation="0.4"
         result="blur"
         id="feGaussianBlur6765" />
      <feOffset
         dx="0.8"
         dy="0.8"
         result="offset"
         id="feOffset6767" />
      <feComposite
         in="SourceGraphic"
         in2="offset"
         operator="over"
         result="composite2"
         id="feComposite6769" />
    </filter>
    <style
       id="style6834">.cls-1{fill:#ccc;}.cls-2{fill:#e6e6e6;}.cls-3{fill:#b3b3b3;}.cls-4{fill:#d2423f;}.cls-5{fill:#dd6966;}.cls-6{fill:#ba3b38;}.cls-7{fill:#2175aa;}.cls-8{fill:#1d6694;}.cls-9{fill:#f2f2f2;}.cls-10{fill:#f7f7f7;}.cls-11{fill:#4d91bb;}</style>
  </defs>
  <sodipodi:namedview
     id="base"
     pagecolor="#ffffff"
     bordercolor="#666666"
     borderopacity="1.0"
     inkscape:pageopacity="0.0"
     inkscape:pageshadow="2"
     inkscape:zoom="4"
     inkscape:cx="5.963787"
     inkscape:cy="68.138516"
     inkscape:document-units="px"
     inkscape:current-layer="layer3"
     showgrid="false"
     inkscape:window-width="1920"
     inkscape:window-height="1017"
     inkscape:window-x="1272"
     inkscape:window-y="-8"
     inkscape:window-maximized="1"
     inkscape:grid-bbox="true"
     showborder="true"
     borderlayer="false"
     inkscape:pagecheckerboard="true" />
  <metadata
     id="metadata3788">
    <rdf:RDF>
      <cc:Work
         rdf:about="">
        <dc:format>image/svg+xml</dc:format>
        <dc:type
           rdf:resource="http://purl.org/dc/dcmitype/StillImage" />
        <dc:title />
      </cc:Work>
    </rdf:RDF>
  </metadata>
  <g
     inkscape:label="Layer 1"
     inkscape:groupmode="layer"
     id="layer1"
     style="display:none">
    <circle
       id="path3798"
       cx="63.904774"
       cy="64.448776"
       r="60"
       style="fill:#ffffff;filter:url(#filter6771)" />
    <circle
       id="path3800"
       style="fill:#60c7e2;fill-opacity:1;stroke-width:3.81779623"
       cy="64.161163"
       cx="63.662064"
       r="55" />
  </g>
  <g
     inkscape:groupmode="layer"
     id="layer3"
     inkscape:label="Layer 3"
     style="display:inline">
    <g
       style="display:inline"
       id="_18_School_Building"
       data-name="18 School Building"
       transform="matrix(0.67227416,0,0,0.70923514,20.095028,16.033246)">
      <path
         id="path6840"
         d="M 40,104 H 20 a 4,4 0 0 1 -4,-4 V 71.71 l 24,-16 z m 48,0 h 20 a 4,4 0 0 0 4,-4 V 71.71 l -24,-16 z"
         class="cls-1"
         inkscape:connector-curvature="0"
         style="fill:#cccccc" />
      <path
         id="path6842"
         d="M 17.1,100 V 71.71 L 40,56.44 V 55.7 l -24,16 V 100 a 4,4 0 0 0 4,4 h 1.1 a 4,4 0 0 1 -4,-4 z"
         class="cls-2"
         inkscape:connector-curvature="0"
         style="fill:#e6e6e6" />
      <path
         id="path6844"
         d="m 93.72,64.53 c 18,12 17,11.58 18.28,11.58 v -4.4 l -24,-16 V 104 h 20 a 4,4 0 0 0 4,-4 v -1.86 a 4,4 0 0 1 -4,4 H 94.46 A 3.46,3.46 0 0 1 91,98.69 V 66 a 1.75,1.75 0 0 1 2.72,-1.47 z"
         class="cls-3"
         inkscape:connector-curvature="0"
         style="fill:#b3b3b3" />
      <path
         id="path6846"
         d="m 16,71.71 v 4.4 a 3,3 0 0 0 1.66,-0.5 L 34.28,64.53 A 1.75,1.75 0 0 1 37,66 v 31.65 a 4.49,4.49 0 0 1 -4.49,4.49 H 20 a 4,4 0 0 1 -4,-4 V 100 a 4,4 0 0 0 4,4 H 40 V 55.71 Z"
         class="cls-3"
         inkscape:connector-curvature="0"
         style="fill:#b3b3b3" />
      <path
         id="path6848"
         d="M 110.34,74.21 64,43.31 17.66,74.21 c -3.3,2.2 -6.63,-2.79 -3.33,-5 l 48,-32 a 3,3 0 0 1 3.33,0 l 48,32 c 3.28,2.19 -0.01,7.2 -3.32,5 z"
         class="cls-4"
         inkscape:connector-curvature="0"
         style="fill:#d2423f" />
      <path
         id="path6850"
         d="m 62.24,38 a 3,3 0 0 1 3.33,0 c 51.67,34.45 49.29,32.19 49.33,34.44 a 3,3 0 0 0 -1.23,-3.23 l -48,-32 a 3,3 0 0 0 -3.33,0 C 10.3,71.9 13,69.43 13,71.76 13.42,70.14 10.54,72.47 62.24,38 Z"
         class="cls-5"
         inkscape:connector-curvature="0"
         style="fill:#dd6966" />
      <path
         id="path6852"
         d="m 114.94,71.15 a 3,3 0 0 1 -4.61,1.92 C 90,59.5 91,61.76 91,54.1 l -3,-2 v 6.08 l -24,-16 -24,16 V 52.1 l -3,2 c 0,2.61 0.47,5.77 -2.67,7.86 L 17.66,73.07 a 3,3 0 0 1 -4.61,-1.92 3,3 0 0 0 4.61,3.06 L 37,61.31 l 27,-18 46.34,30.89 a 3,3 0 0 0 4.61,-3.06 z"
         class="cls-6"
         inkscape:connector-curvature="0"
         style="fill:#ba3b38" />
      <path
         id="path6854"
         d="m 31,89.1 h -6 a 2,2 0 0 1 -2,-2 v -6 a 2,2 0 0 1 2,-2 h 6 a 2,2 0 0 1 2,2 v 6 a 2,2 0 0 1 -2,2 z m 74,-2 v -6 a 2,2 0 0 0 -2,-2 h -6 a 2,2 0 0 0 -2,2 v 6 a 2,2 0 0 0 2,2 h 6 a 2,2 0 0 0 2,-2 z"
         class="cls-7"
         inkscape:connector-curvature="0"
         style="fill:#2175aa" />
      <path
         id="path6856"
         d="m 23.21,87.31 v -6 a 2,2 0 0 1 2,-2 h 6 A 2,2 0 0 1 32.51,79.8 2,2 0 0 0 31,79.1 h -6 a 2,2 0 0 0 -2,2 v 6 a 2,2 0 0 0 0.7,1.51 2,2 0 0 1 -0.49,-1.3 z"
         class="cls-8"
         inkscape:connector-curvature="0"
         style="fill:#1d6694" />
      <path
         id="path6858"
         d="m 95.21,81.31 a 2,2 0 0 1 2,-2 h 6 a 2,2 0 0 1 1.3,0.49 2,2 0 0 0 -1.51,-0.7 h -6 a 2,2 0 0 0 -2,2 c 0,5.9 -0.3,6.65 0.7,7.51 -0.77,-0.89 -0.49,-1.61 -0.49,-7.3 z"
         class="cls-8"
         inkscape:connector-curvature="0"
         style="fill:#1d6694" />
      <polygon
         id="polygon6860"
         points="88,40 64,24 40,40 40,104 88,104 "
         class="cls-9"
         style="fill:#f2f2f2" />
      <polygon
         id="polygon6862"
         points="42,104 42,40 65,24.67 64,24 40,40 40,104 "
         class="cls-10"
         style="fill:#f7f7f7" />
      <path
         id="path6864"
         d="M 64,24 40,40 v 5 a 3,3 0 0 0 1.66,-0.5 l 19,-12.67 a 6,6 0 0 1 6.66,0 l 16,10.67 a 6,6 0 0 1 2.67,5 V 98 a 4.29,4.29 0 0 1 -4.12,4.29 L 40,104 H 88 V 40 Z"
         class="cls-2"
         inkscape:connector-curvature="0"
         style="fill:#e6e6e6" />
      <path
         id="path6866"
         d="m 88,43 c -1.28,0 0.26,0.77 -24,-15.4 L 41.66,42.5 c -3.3,2.2 -6.63,-2.79 -3.33,-5 l 24,-16 a 3,3 0 0 1 3.33,0 l 24,16 A 3,3 0 0 1 88,43 Z"
         class="cls-4"
         inkscape:connector-curvature="0"
         style="fill:#d2423f" />
      <path
         id="path6868"
         d="m 88,41.76 c -1.28,0 0.26,0.77 -24,-15.4 L 41.66,41.25 a 3,3 0 0 1 -4.59,-1.88 3,3 0 0 0 4.59,3.12 L 64,27.61 C 88.33,43.82 86.75,43 88,43 A 3,3 0 0 0 90.93,39.37 3,3 0 0 1 88,41.76 Z"
         class="cls-6"
         inkscape:connector-curvature="0"
         style="fill:#ba3b38" />
      <path
         id="path6870"
         d="m 62.34,22.5 a 3,3 0 0 1 3.33,0 c 25.83,17.22 25,16.2 25.29,18 a 3,3 0 0 0 -1.29,-3 l -24,-16 a 3,3 0 0 0 -3.33,0 l -24,16 a 3,3 0 0 0 -1.29,3 c 0.29,-1.78 -0.6,-0.74 25.29,-18 z"
         class="cls-5"
         inkscape:connector-curvature="0"
         style="fill:#dd6966" />
      <path
         id="path6872"
         d="m 58,85.92 h 12 a 2,2 0 0 1 2,2 V 104 H 56 V 87.92 a 2,2 0 0 1 2,-2 z"
         class="cls-11"
         inkscape:connector-curvature="0"
         style="fill:#4d91bb" />
      <polygon
         id="polygon6874"
         points="72,104 72,102.71 56,103.35 56,104 "
         class="cls-7"
         style="fill:#2175aa" />
      <path
         id="path6876"
         d="m 56.6,88.53 a 2,2 0 0 1 2,-2 h 12 A 2,2 0 0 1 71.68,86.85 2,2 0 0 0 70,85.92 H 58 a 2,2 0 0 0 -2,2 V 104 h 0.6 z"
         class="cls-7"
         inkscape:connector-curvature="0"
         style="fill:#2175aa" />
      <path
         id="path6878"
         d="m 60,61.11 h -8 a 2,2 0 0 1 -2,-2 v -8 a 2,2 0 0 1 2,-2 h 8 a 2,2 0 0 1 2,2 v 8 a 2,2 0 0 1 -2,2 z m 2,14 v -8 a 2,2 0 0 0 -2,-2 h -8 a 2,2 0 0 0 -2,2 v 8 a 2,2 0 0 0 2,2 h 8 a 2,2 0 0 0 2,-2 z m 16,-15.4 v -8 a 2,2 0 0 0 -2,-2 h -8 a 2,2 0 0 0 -2,2 v 8 a 2,2 0 0 0 2,2 h 8 a 2,2 0 0 0 2,-2 z m 0,15.4 v -8 a 2,2 0 0 0 -2,-2 h -8 a 2,2 0 0 0 -2,2 v 8 a 2,2 0 0 0 2,2 h 8 a 2,2 0 0 0 2,-2 z"
         class="cls-11"
         inkscape:connector-curvature="0"
         style="fill:#4d91bb" />
      <path
         id="path6880"
         d="m 50.78,60.69 a 2,2 0 0 1 -0.42,-1.22 v -8 a 2,2 0 0 1 2,-2 h 8 A 2,2 0 0 1 61.58,49.89 2,2 0 0 0 60,49.11 h -8 a 2,2 0 0 0 -2,2 v 8 a 2,2 0 0 0 0.78,1.58 z"
         class="cls-7"
         inkscape:connector-curvature="0"
         style="fill:#2175aa" />
      <path
         id="path6882"
         d="m 66.78,61.29 a 2,2 0 0 1 -0.42,-1.22 v -8 a 2,2 0 0 1 2,-2 h 8 A 2,2 0 0 1 77.58,50.49 2,2 0 0 0 76,49.71 h -8 a 2,2 0 0 0 -2,2 v 8 a 2,2 0 0 0 0.78,1.58 z"
         class="cls-7"
         inkscape:connector-curvature="0"
         style="fill:#2175aa" />
      <path
         id="path6884"
         d="m 50.36,75.47 v -8 a 2,2 0 0 1 2,-2 h 8 A 2,2 0 0 1 61.58,65.89 2,2 0 0 0 60,65.11 h -8 a 2,2 0 0 0 -2,2 v 8 a 2,2 0 0 0 0.78,1.58 2,2 0 0 1 -0.42,-1.22 z"
         class="cls-7"
         inkscape:connector-curvature="0"
         style="fill:#2175aa" />
      <path
         id="path6886"
         d="m 66.36,75.47 v -8 a 2,2 0 0 1 2,-2 h 8 A 2,2 0 0 1 77.58,65.89 2,2 0 0 0 76,65.11 h -8 a 2,2 0 0 0 -2,2 v 8 a 2,2 0 0 0 0.78,1.58 2,2 0 0 1 -0.42,-1.22 z"
         class="cls-7"
         inkscape:connector-curvature="0"
         style="fill:#2175aa" />
    </g>
  </g>
  <g
     inkscape:groupmode="layer"
     id="layer4"
     inkscape:label="Layer 4"
     style="display:none">
    <g
       style="display:inline"
       id="g7172"
       transform="matrix(2.2564408,0.42140818,-0.39776488,2.1298422,30.260958,23.179952)">
      <g
         id="Energy20-0" />
      <g
         id="Energy19-9" />
      <g
         id="Energy18-3" />
      <g
         id="Energy17-9" />
      <g
         id="Energy16-1" />
      <g
         id="Energy15-2" />
      <g
         id="Energy14-4" />
      <g
         id="Energy13-0" />
      <g
         id="Energy12-9" />
      <g
         id="Energy11-8" />
      <g
         id="Energy10-4" />
      <g
         id="Energy09-8" />
      <g
         id="Energy08-8" />
      <g
         id="Energy07-6" />
      <g
         id="Energy06-1" />
      <g
         id="Energy05-3" />
      <g
         id="Energy04-2" />
      <g
         id="Energy03-9" />
      <g
         id="Energy02-9" />
      <g
         id="Energy01-4">
        <g
           id="g7139"
           transform="matrix(1.0779614,-0.19585935,0.16989509,1.0538727,-2.6899367,2.6351116)">
          <path
             id="path7137"
             d="m 26.87,12.49 -10,18 C 16.69,30.81 16.36,31 16,31 15.92,31 15.83,30.99 15.75,30.97 15.31,30.85 15,30.46 15,30 V 19 H 6 C 5.66,19 5.35,18.83 5.16,18.55 4.98,18.27 4.95,17.91 5.08,17.6 l 7,-16 C 12.24,1.24 12.6,1 13,1 h 6 c 0.33,0 0.64,0.16 0.83,0.44 0.18,0.27 0.22,0.62 0.1,0.93 L 16.48,11 H 26 c 0.35,0 0.68,0.19 0.86,0.49 0.18,0.31 0.19,0.69 0.01,1 z"
             inkscape:connector-curvature="0"
             style="fill:#ffb841" />
        </g>
      </g>
    </g>
  </g>
  <g
     inkscape:groupmode="layer"
     id="layer5"
     inkscape:label="Layer 5"
     style="display:none">
    <g
       style="display:inline;fill:#ffffff"
       id="g8054"
       transform="matrix(3.2222222,0,0,2.8333333,24.583333,30.5)">
      <path
         id="path8038"
         d="M 19,17 H 5 c -1.103,0 -2,0.897 -2,2 0,1.103 0.897,2 2,2 h 14 c 1.103,0 2,-0.897 2,-2 0,-1.103 -0.897,-2 -2,-2 z"
         inkscape:connector-curvature="0"
         style="fill:#ffffff" />
      <path
         id="path8040"
         d="M 19,10 H 5 c -1.103,0 -2,0.897 -2,2 0,1.103 0.897,2 2,2 h 14 c 1.103,0 2,-0.897 2,-2 0,-1.103 -0.897,-2 -2,-2 z"
         inkscape:connector-curvature="0"
         style="fill:#ffffff" />
      <path
         id="path8042"
         d="M 19,3 H 5 C 3.897,3 3,3.897 3,5 3,6.103 3.897,7 5,7 H 19 C 20.103,7 21,6.103 21,5 21,3.897 20.103,3 19,3 Z"
         inkscape:connector-curvature="0"
         style="fill:#ffffff" />
    </g>
  </g>
</svg>
