<?xml version="1.0" encoding="UTF-8" standalone="no"?>
<svg
   xmlns:dc="http://purl.org/dc/elements/1.1/"
   xmlns:cc="http://creativecommons.org/ns#"
   xmlns:rdf="http://www.w3.org/1999/02/22-rdf-syntax-ns#"
   xmlns:svg="http://www.w3.org/2000/svg"
   xmlns="http://www.w3.org/2000/svg"
   xmlns:sodipodi="http://sodipodi.sourceforge.net/DTD/sodipodi-0.dtd"
   xmlns:inkscape="http://www.inkscape.org/namespaces/inkscape"
   enable-background="new 0 0 500 500"
   height="500px"
   id="Layer_1"
   version="1.1"
   viewBox="0 0 500 500"
   width="500px"
   xml:space="preserve"
   sodipodi:docname="Oil.svg"
   inkscape:export-filename="C:\Users\Matty\Documents\Projects\DawnOfCivilisation\Textures\Icons\Oil.png"
   inkscape:export-xdpi="98.304001"
   inkscape:export-ydpi="98.304001"
   inkscape:version="0.92.4 (5da689c313, 2019-01-14)"><metadata
     id="metadata9"><rdf:RDF><cc:Work
         rdf:about=""><dc:format>image/svg+xml</dc:format><dc:type
           rdf:resource="http://purl.org/dc/dcmitype/StillImage" /></cc:Work></rdf:RDF></metadata><defs
     id="defs7" /><sodipodi:namedview
     pagecolor="#ffffff"
     bordercolor="#666666"
     borderopacity="1"
     objecttolerance="10"
     gridtolerance="10"
     guidetolerance="10"
     inkscape:pageopacity="0"
     inkscape:pageshadow="2"
     inkscape:window-width="1920"
     inkscape:window-height="1017"
     id="namedview5"
     showgrid="false"
     inkscape:zoom="0.472"
     inkscape:cx="250"
     inkscape:cy="250"
     inkscape:window-x="1272"
     inkscape:window-y="-8"
     inkscape:window-maximized="1"
     inkscape:current-layer="Layer_1" /><path
     clip-rule="evenodd"
     d="M109.676,329.772c0,76.403,63.053,138.278,140.825,138.278  c77.778,0,140.823-61.875,140.823-138.278c0-97.943-109.29-161.542-118.108-270.567v-4.543c0-12.536-10.179-22.713-22.715-22.713  c-12.537,0-22.713,10.177-22.713,22.713v4.543C218.701,168.231,109.676,231.83,109.676,329.772z M270.037,386.284  c19.628-4.543,35.243-21.26,39.786-39.52c1.552-8.544,8.994-14.993,17.905-14.993c9.987,0,18.168,8.181,18.168,18.167  c0,13.079-10.992,32.983-25.978,47.876c-14.726,14.543-32.261,24.81-46.703,24.81c-9.991,0-18.172-8.447-18.172-18.436  C255.044,395.278,261.493,387.828,270.037,386.284z"
     fill="#010101"
     fill-rule="evenodd"
     id="path2" /></svg>