<?xml version="1.0" encoding="UTF-8" standalone="no"?>
<!-- Generator: Adobe Illustrator 19.0.0, SVG Export Plug-In . SVG Version: 6.00 Build 0)  -->

<svg
   xmlns:dc="http://purl.org/dc/elements/1.1/"
   xmlns:cc="http://creativecommons.org/ns#"
   xmlns:rdf="http://www.w3.org/1999/02/22-rdf-syntax-ns#"
   xmlns:svg="http://www.w3.org/2000/svg"
   xmlns="http://www.w3.org/2000/svg"
   xmlns:sodipodi="http://sodipodi.sourceforge.net/DTD/sodipodi-0.dtd"
   xmlns:inkscape="http://www.inkscape.org/namespaces/inkscape"
   version="1.1"
   id="Layer_1"
   x="0px"
   y="0px"
   viewBox="0 0 310 310"
   style="enable-background:new 0 0 310 310;"
   xml:space="preserve"
   sodipodi:docname="Silicon.svg"
   inkscape:export-filename="C:\Users\Matty\Documents\Projects\DawnOfCivilisation\Textures\Icons\Coal.png"
   inkscape:export-xdpi="158.55484"
   inkscape:export-ydpi="158.55484"
   inkscape:version="0.92.4 (5da689c313, 2019-01-14)"><metadata
   id="metadata45"><rdf:RDF><cc:Work
       rdf:about=""><dc:format>image/svg+xml</dc:format><dc:type
         rdf:resource="http://purl.org/dc/dcmitype/StillImage" /><dc:title></dc:title></cc:Work></rdf:RDF></metadata><defs
   id="defs43" /><sodipodi:namedview
   pagecolor="#ffffff"
   bordercolor="#666666"
   borderopacity="1"
   objecttolerance="10"
   gridtolerance="10"
   guidetolerance="10"
   inkscape:pageopacity="0"
   inkscape:pageshadow="2"
   inkscape:window-width="1920"
   inkscape:window-height="1017"
   id="namedview41"
   showgrid="false"
   inkscape:zoom="2.1532542"
   inkscape:cx="123.14"
   inkscape:cy="161.85768"
   inkscape:window-x="1272"
   inkscape:window-y="-8"
   inkscape:window-maximized="1"
   inkscape:current-layer="g8"
   inkscape:pagecheckerboard="true" />
<g
   id="g8">
	<path
   style="fill:#47474b;fill-opacity:1"
   d="M309.262,225.284L262.658,82.323c-0.56-1.717-1.432-3.285-2.531-4.669   c-1.512-1.902-3.465-3.443-5.742-4.436L132.809,20.277c-2.719-1.184-5.676-1.514-8.506-1.032c-2.162,0.368-4.252,1.209-6.105,2.512   L6.377,100.316C2.38,103.124,0,107.703,0,112.589V234.98c0,6.253,3.879,11.85,9.733,14.045l109.297,40.988   c0.623,0.233,1.261,0.409,1.903,0.558c1.105,0.255,2.232,0.397,3.363,0.397c1.312,0,2.625-0.172,3.905-0.518l170.703-46.035   c3.972-1.07,7.328-3.725,9.286-7.342C310.149,233.456,310.536,229.194,309.262,225.284z"
   id="path2" />
	<path
   style="fill:#73717a;fill-opacity:1"
   d="M254.385,73.219L132.809,20.277c-2.719-1.184-5.676-1.514-8.506-1.032l27.667,144.029l108.157-85.62   C258.615,75.752,256.662,74.211,254.385,73.219z"
   id="path4" />
	<path
   style="fill:#7f7f85;fill-opacity:1"
   d="M309.262,225.284L262.658,82.323c-0.56-1.717-1.432-3.285-2.531-4.669l-108.157,85.62   L120.934,290.57c1.105,0.255,2.232,0.397,3.363,0.397c1.312,0,2.625-0.172,3.905-0.518l170.703-46.035   c3.972-1.07,7.328-3.725,9.286-7.342C310.149,233.456,310.536,229.194,309.262,225.284z"
   id="path6" />
<path
   style="fill:#eaeaea;stroke:#000000;stroke-width:0;stroke-linecap:butt;stroke-linejoin:miter;stroke-opacity:1;fill-opacity:1;stroke-miterlimit:4;stroke-dasharray:none"
   d="M 25.078321,172.53365 26.007148,123.30583 64.553456,93.583378 34.831001,129.80762 Z"
   id="path4555"
   inkscape:connector-curvature="0" /><path
   style="fill:#eaeaea;fill-opacity:1;stroke:#000000;stroke-width:0;stroke-linecap:butt;stroke-linejoin:miter;stroke-miterlimit:4;stroke-dasharray:none;stroke-opacity:1"
   d="m 281.6667,173.92688 -0.92883,49.22782 -38.54631,29.72246 29.72246,-36.22425 z"
   id="path4555-2"
   inkscape:connector-curvature="0" /></g>
<g
   id="g10">
</g>
<g
   id="g12">
</g>
<g
   id="g14">
</g>
<g
   id="g16">
</g>
<g
   id="g18">
</g>
<g
   id="g20">
</g>
<g
   id="g22">
</g>
<g
   id="g24">
</g>
<g
   id="g26">
</g>
<g
   id="g28">
</g>
<g
   id="g30">
</g>
<g
   id="g32">
</g>
<g
   id="g34">
</g>
<g
   id="g36">
</g>
<g
   id="g38">
</g>
</svg>